<svg height="512" viewBox="0 0 128 128" width="512" xmlns="http://www.w3.org/2000/svg"><g><path d="m12.768 77.945h102.464v43.055h-102.464z" fill="#def6ff"/><path d="m12.768 58.232a51.232 51.232 0 0 1 102.464 0z" fill="#75e1f7"/><path d="m87.512 121-9.793-29.555h-27.438l-9.793 29.555z" fill="#4d5e80"/><path d="m56.207 121v-13.11a7.793 7.793 0 0 1 7.793-7.79 7.793 7.793 0 0 1 7.793 7.793v13.107z" fill="#ffd92e"/><path d="m112.9 42.9c-.38-1.19-.79-2.36-1.24-3.5h-30.34a80.644 80.644 0 0 0 -3.47-13.57h25.82q-1.485-1.83-3.14-3.5h-24.03c-3.49-8.31-7.55-13.07-9.79-15.26-.9-.05-1.8-.07-2.71-.07s-1.81.02-2.71.07c-2.24 2.19-6.3 6.95-9.79 15.26h-24.03q-1.65 1.67-3.14 3.5h25.82a81.562 81.562 0 0 0 -3.48 13.57h-30.33c-.45 1.14-.86 2.31-1.24 3.5h31.05a116.36 116.36 0 0 0 -.98 15.33h3.5a108.8 108.8 0 0 1 1.03-15.33h28.6a109.879 109.879 0 0 1 1.03 15.33h3.5a116.36 116.36 0 0 0 -.98-15.33zm-48.9-33.57a39.069 39.069 0 0 1 7.12 9.87c.5.94 1.01 1.99 1.52 3.13h-17.24a42.735 42.735 0 0 1 8.6-13zm-13.74 30.07a76.106 76.106 0 0 1 3.69-13.57h20.13a76.2 76.2 0 0 1 3.67 13.57z" fill="#30cffc"/><path d="m7 58.232h114v19.714h-114z" fill="#4d5e80"/></g></svg>