<svg height="512" viewBox="0 0 128 128" width="512" xmlns="http://www.w3.org/2000/svg"><g><g><path d="m47.248 91.199h33.504v18.878h-33.504z" fill="#4d5e80"/><path d="m43.3 59.958h41.399v31.241h-41.399z" fill="#def6ff"/><path d="m40 69.49h48v12.177h-48z" fill="#4d5e80"/><path d="m64 7a5.982 5.982 0 0 0 -5.982 5.982v2.618h11.964v-2.62a5.982 5.982 0 0 0 -5.982-5.98z" fill="#def6ff"/><path d="m48.935 37.87-5.635 22.088h41.4l-5.635-22.088z" fill="#c5e2f9"/><g fill="#c5e2f9"><path d="m57.725 91.199-1.822 13.593 4.213 16.208h7.768l4.213-16.208-1.822-13.593z"/><path d="m43.3 91.199v29.801h3.691l4.212-16.208-1.821-13.593z"/><path d="m76.797 104.792 4.212 16.208h3.691v-29.801h-6.082z"/></g><path d="m43.3 15.602h41.399v22.268h-41.399z" fill="#4d5e80"/></g><g fill="#3c4566"><path d="m64 22.571a1.75 1.75 0 0 0 -1.75 1.75v4.83a1.75 1.75 0 0 0 3.5 0v-4.83a1.75 1.75 0 0 0 -1.75-1.75z"/><path d="m53.65 22.571a1.75 1.75 0 0 0 -1.75 1.75v4.83a1.75 1.75 0 1 0 3.5 0v-4.83a1.749 1.749 0 0 0 -1.75-1.75z"/><path d="m74.35 22.571a1.749 1.749 0 0 0 -1.75 1.75v4.83a1.75 1.75 0 0 0 3.5 0v-4.83a1.75 1.75 0 0 0 -1.75-1.75z"/></g></g></svg>