<svg height="512" viewBox="0 0 128 128" width="512" xmlns="http://www.w3.org/2000/svg"><g><circle cx="64" cy="64" fill="#75e1f7" r="40"/><circle cx="64" cy="64" fill="#f95353" r="10.939" transform="matrix(.993 -.122 .122 .993 -7.34 8.299)"/><g fill="#ffd92e"><circle cx="91.699" cy="36.301" r="4.435"/><path d="m36.3 87.264a4.436 4.436 0 1 0 4.436 4.436 4.436 4.436 0 0 0 -4.436-4.436z"/><g><path d="m24.505 17h-2.205a1.75 1.75 0 0 0 0 3.5h2.209a1.75 1.75 0 0 0 0-3.5z"/><path d="m15.209 17h-2.209a1.75 1.75 0 0 0 0 3.5h2.209a1.75 1.75 0 1 0 0-3.5z"/><path d="m18.753 20.547a1.75 1.75 0 0 0 -1.753 1.753v2.209a1.75 1.75 0 0 0 3.5 0v-2.209a1.75 1.75 0 0 0 -1.747-1.753z"/><path d="m18.753 11.25a1.75 1.75 0 0 0 -1.753 1.75v2.209a1.75 1.75 0 1 0 3.5 0v-2.209a1.75 1.75 0 0 0 -1.747-1.75z"/></g><g><path d="m115 107.5h-2.209a1.75 1.75 0 0 0 0 3.5h2.209a1.75 1.75 0 0 0 0-3.5z"/><path d="m105.7 107.5h-2.2a1.75 1.75 0 0 0 0 3.5h2.2a1.75 1.75 0 0 0 0-3.5z"/><path d="m109.247 111.041a1.75 1.75 0 0 0 -1.75 1.75v2.209a1.75 1.75 0 0 0 3.5 0v-2.209a1.75 1.75 0 0 0 -1.75-1.75z"/><path d="m109.247 101.744a1.75 1.75 0 0 0 -1.75 1.75v2.206a1.75 1.75 0 0 0 3.5 0v-2.209a1.75 1.75 0 0 0 -1.75-1.747z"/></g></g><path d="m64 40.888a1.75 1.75 0 0 0 0 3.5 31.183 31.183 0 0 1 31.148 31.147 38.337 38.337 0 0 1 -38.294 38.294 48.158 48.158 0 0 1 -48.1-48.1 1.75 1.75 0 0 0 -3.5 0 51.662 51.662 0 0 0 51.6 51.6 41.841 41.841 0 0 0 41.794-41.794 34.686 34.686 0 0 0 -34.648-34.647z" fill="#30cffc"/><path d="m71.146 10.671a41.841 41.841 0 0 0 -41.794 41.794 34.686 34.686 0 0 0 34.648 34.647 1.75 1.75 0 0 0 0-3.5 31.183 31.183 0 0 1 -31.148-31.147 38.337 38.337 0 0 1 38.294-38.294 48.158 48.158 0 0 1 48.1 48.1 1.75 1.75 0 0 0 3.5 0 51.662 51.662 0 0 0 -51.6-51.6z" fill="#30cffc"/><path d="m90.811 90.724a6.087 6.087 0 1 0 6.089 6.087 6.088 6.088 0 0 0 -6.089-6.087z" fill="#fb9700"/><circle cx="37.189" cy="31.189" fill="#fb9700" r="6.087" transform="matrix(.997 -.082 .082 .997 -2.446 3.174)"/></g></svg>