<svg height="512" viewBox="0 0 128 128" width="512" xmlns="http://www.w3.org/2000/svg"><g><g fill="#c5e2f9"><path d="m121 119.25h-2.37l-9.937-46.722a1.752 1.752 0 0 0 -.659-1.034l-18.634-14.03a1.751 1.751 0 0 0 -2.106 2.8l17.551 13.213-9.038 21.789-11.697-4.046a1.75 1.75 0 0 0 -1.145 3.308l28.959 10.017 3.127 14.7h-1.625a1.75 1.75 0 1 0 0 3.5h7.574a1.75 1.75 0 0 0 0-3.5zm-21.879-22.838 7.32-17.648 4.632 21.782z"/><path d="m43.89 91.22-11.7 4.046-9.035-21.792 17.551-13.213a1.751 1.751 0 0 0 -2.106-2.8l-18.634 14.033a1.752 1.752 0 0 0 -.659 1.034l-9.937 46.722h-2.37a1.75 1.75 0 0 0 0 3.5h7.574a1.75 1.75 0 1 0 0-3.5h-1.625l3.127-14.7 28.959-10.022a1.75 1.75 0 0 0 -1.145-3.308zm-26.963 9.326 4.632-21.782 7.32 17.648z"/><path d="m67.787 119.25h-2.037v-24.871h-3.5v24.871h-2.037a1.75 1.75 0 1 0 0 3.5h7.574a1.75 1.75 0 0 0 0-3.5z"/></g><path d="m39.15 29.95-4.147 52.082h57.994l-4.147-52.082z" fill="#def6ff"/><path d="m40.112 94.379h47.776l5.109-12.347h-57.994z" fill="#4d5e80"/><path d="m64 7a24.929 24.929 0 0 0 -24.85 22.95h49.7a24.929 24.929 0 0 0 -24.85-22.95z" fill="#75e1f7"/><path d="m53 48.768a4.889 4.889 0 0 0 -4.889 4.888v18.376h9.778v-18.376a4.889 4.889 0 0 0 -4.889-4.888z" fill="#75e1f7"/><path d="m48.111 63.389h9.778v8.642h-9.778z" fill="#ffd92e"/><path d="m75 48.768a4.889 4.889 0 0 0 -4.889 4.888v18.376h9.778v-18.376a4.889 4.889 0 0 0 -4.889-4.888z" fill="#75e1f7"/><path d="m70.111 63.389h9.778v8.642h-9.778z" fill="#ffd92e"/></g></svg>