<svg height="512" viewBox="0 0 128 128" width="512" xmlns="http://www.w3.org/2000/svg"><g><path d="m28.878 101.913h16.293l3.119-8.024h-22.531z" fill="#75e1f7"/><path d="m82.829 101.913h16.293l3.119-8.024h-22.531z" fill="#75e1f7"/><path d="m64 7a51.914 51.914 0 0 0 -51.914 51.914v23.746h103.828v-23.746a51.914 51.914 0 0 0 -51.914-51.914z" fill="#def6ff"/><path d="m116.5 82.66h-105a4.5 4.5 0 0 0 -4.5 4.5v6.729h114v-6.729a4.5 4.5 0 0 0 -4.5-4.5z" fill="#4d5e80"/><path d="m64 17.344c-19.289 0-24.448 16.562-23.23 25.309 1.683 12.076 6.328 11.5 10.416 20.14a17.79 17.79 0 0 0 7.556 8.176 10.941 10.941 0 0 0 10.516 0 17.79 17.79 0 0 0 7.556-8.176c4.088-8.636 8.733-8.064 10.416-20.14 1.218-8.747-3.941-25.309-23.23-25.309z" fill="#a9db1f"/><g fill="#4d5e80"><path d="m51.058 37.119a2.981 2.981 0 0 0 -3.558 3.2 15.1 15.1 0 0 0 1.276 4.907 4.527 4.527 0 0 0 3.516 2.6c2.2.3 5.486.279 7.6-1.883a2.965 2.965 0 0 0 -.087-4.232 18.006 18.006 0 0 0 -8.747-4.592z"/><path d="m76.942 37.119a18.006 18.006 0 0 0 -8.752 4.587 2.965 2.965 0 0 0 -.087 4.232c2.119 2.162 5.4 2.183 7.605 1.883a4.527 4.527 0 0 0 3.516-2.6 15.1 15.1 0 0 0 1.276-4.903 2.981 2.981 0 0 0 -3.558-3.199z"/></g><g fill="#ffd92e"><g><path d="m37.024 107.8a1.751 1.751 0 0 0 -1.75 1.75v4.481a1.75 1.75 0 0 0 3.5 0v-4.481a1.75 1.75 0 0 0 -1.75-1.75z"/><path d="m37.024 118.007a1.75 1.75 0 0 0 -1.75 1.75v1.243a1.75 1.75 0 0 0 3.5 0v-1.243a1.749 1.749 0 0 0 -1.75-1.75z"/></g><g><path d="m44.787 107.8a1.75 1.75 0 0 0 -1.75 1.75v4.481a1.75 1.75 0 0 0 3.5 0v-4.481a1.751 1.751 0 0 0 -1.75-1.75z"/><path d="m44.787 118.007a1.749 1.749 0 0 0 -1.75 1.75v1.243a1.75 1.75 0 0 0 3.5 0v-1.243a1.75 1.75 0 0 0 -1.75-1.75z"/></g><g><path d="m29.262 107.8a1.751 1.751 0 0 0 -1.75 1.75v4.481a1.75 1.75 0 0 0 3.5 0v-4.481a1.75 1.75 0 0 0 -1.75-1.75z"/><path d="m29.262 118.007a1.75 1.75 0 0 0 -1.75 1.75v1.243a1.75 1.75 0 0 0 3.5 0v-1.243a1.749 1.749 0 0 0 -1.75-1.75z"/></g><g><path d="m90.976 107.8a1.75 1.75 0 0 0 -1.75 1.75v4.481a1.75 1.75 0 0 0 3.5 0v-4.481a1.751 1.751 0 0 0 -1.75-1.75z"/><path d="m90.976 118.007a1.749 1.749 0 0 0 -1.75 1.75v1.243a1.75 1.75 0 0 0 3.5 0v-1.243a1.75 1.75 0 0 0 -1.75-1.75z"/></g><g><path d="m83.213 107.8a1.751 1.751 0 0 0 -1.75 1.75v4.481a1.75 1.75 0 0 0 3.5 0v-4.481a1.75 1.75 0 0 0 -1.75-1.75z"/><path d="m83.213 118.007a1.75 1.75 0 0 0 -1.75 1.75v1.243a1.75 1.75 0 0 0 3.5 0v-1.243a1.749 1.749 0 0 0 -1.75-1.75z"/></g><g><path d="m98.738 107.8a1.75 1.75 0 0 0 -1.75 1.75v4.481a1.75 1.75 0 0 0 3.5 0v-4.481a1.751 1.751 0 0 0 -1.75-1.75z"/><path d="m98.738 118.007a1.749 1.749 0 0 0 -1.75 1.75v1.243a1.75 1.75 0 0 0 3.5 0v-1.243a1.75 1.75 0 0 0 -1.75-1.75z"/></g></g><g fill="#6bc800"><path d="m65.255 51.281a1.963 1.963 0 0 1 -2.484.026 1.749 1.749 0 1 0 -2.483 2.465 5.435 5.435 0 0 0 7.424 0 1.73 1.73 0 0 0 0-2.43 1.771 1.771 0 0 0 -2.457-.061z"/><path d="m68.409 59.009h-8.818a1.75 1.75 0 1 0 0 3.5h8.818a1.75 1.75 0 0 0 0-3.5z"/><path d="m73.163 28.605a40.661 40.661 0 0 0 -6.522 2.733 5.637 5.637 0 0 1 -5.282 0 40.661 40.661 0 0 0 -6.522-2.733 1.75 1.75 0 0 0 -1.015 3.35 37.78 37.78 0 0 1 5.9 2.477 9.14 9.14 0 0 0 8.556 0 37.78 37.78 0 0 1 5.9-2.477 1.75 1.75 0 0 0 -1.015-3.35z"/></g><g fill="#ffd92e"><g><path d="m35.015 58.813h-2.209a1.75 1.75 0 0 0 0 3.5h2.209a1.75 1.75 0 0 0 0-3.5z"/><path d="m25.719 58.813h-2.209a1.75 1.75 0 0 0 0 3.5h2.209a1.75 1.75 0 1 0 0-3.5z"/><path d="m29.263 62.356a1.75 1.75 0 0 0 -1.75 1.75v2.209a1.75 1.75 0 0 0 3.5 0v-2.209a1.751 1.751 0 0 0 -1.75-1.75z"/><path d="m29.263 53.06a1.75 1.75 0 0 0 -1.75 1.75v2.209a1.75 1.75 0 0 0 3.5 0v-2.209a1.751 1.751 0 0 0 -1.75-1.75z"/></g><g><path d="m104.49 58.813h-2.209a1.75 1.75 0 0 0 0 3.5h2.209a1.75 1.75 0 0 0 0-3.5z"/><path d="m95.194 58.813h-2.209a1.75 1.75 0 0 0 0 3.5h2.209a1.75 1.75 0 0 0 0-3.5z"/><path d="m98.738 62.356a1.75 1.75 0 0 0 -1.75 1.75v2.209a1.75 1.75 0 0 0 3.5 0v-2.209a1.751 1.751 0 0 0 -1.75-1.75z"/><path d="m98.738 53.06a1.75 1.75 0 0 0 -1.75 1.75v2.209a1.75 1.75 0 1 0 3.5 0v-2.209a1.751 1.751 0 0 0 -1.75-1.75z"/></g></g></g></svg>