<svg height="512" viewBox="0 0 128 128" width="512" xmlns="http://www.w3.org/2000/svg"><g><path d="m15.6 23.25a1.75 1.75 0 0 0 -1.749 1.75v20.6a1.75 1.75 0 1 0 3.5 0v-20.6a1.75 1.75 0 0 0 -1.751-1.75z" fill="#4d5e80"/><path d="m55.111 38.405h-25.111a2.5 2.5 0 0 0 -2.5 2.5v4.695h30.111v-4.69a2.5 2.5 0 0 0 -2.5-2.505z" fill="#ffd92e"/><path d="m7 45.595v25.383h71.414l42.586 5.025-41.037-30.408z" fill="#4d5e80"/><path d="m7 70.978 2.577 20.123h108.846l2.577-15.098-42.586-5.025z" fill="#ffd92e"/><path d="m58.691 52.212 5.931 8.107 41.945 4.989-17.675-13.096z" fill="#75e1f7"/><path d="m7 45.595h41v14.724h-41z" fill="#3c4566"/><g fill="#4d5e80"><path d="m100.5 79.2a11.9 11.9 0 1 0 11.9 11.9 11.9 11.9 0 0 0 -11.9-11.9z"/><path d="m27.5 79.2a11.9 11.9 0 1 0 11.9 11.9 11.9 11.9 0 0 0 -11.9-11.9z"/><path d="m56.685 79.2a11.9 11.9 0 1 0 11.9 11.9 11.9 11.9 0 0 0 -11.9-11.9z"/></g><path d="m100.5 86.165a4.936 4.936 0 1 0 4.936 4.936 4.936 4.936 0 0 0 -4.936-4.936z" fill="#def6ff"/><path d="m27.5 86.165a4.936 4.936 0 1 0 4.936 4.935 4.936 4.936 0 0 0 -4.936-4.935z" fill="#def6ff"/><path d="m56.685 86.165a4.936 4.936 0 1 0 4.936 4.935 4.936 4.936 0 0 0 -4.936-4.935z" fill="#def6ff"/><path d="m73.11 52.21 5.14 9.73 4.22.5-5.4-10.23z" fill="#30cffc"/></g></svg>