<svg height="512" viewBox="0 0 128 128" width="512" xmlns="http://www.w3.org/2000/svg"><g><g><path d="m121 16.4c-6.224 6.01-14.881 12.438-22.132 17.456a3.391 3.391 0 0 1 -4.719-4.719c5.018-7.256 11.451-15.913 17.456-22.137a211.664 211.664 0 0 0 -38.205 22.482 2.258 2.258 0 0 1 -3.2-3.107 137.705 137.705 0 0 1 12.926-16.049s-32.709 12.379-64.76 44.43a38.8 38.8 0 0 0 54.877 54.878c32.052-32.051 44.431-64.76 44.431-64.76a137.8 137.8 0 0 1 -16.056 12.926 2.257 2.257 0 0 1 -3.1-3.194 211.637 211.637 0 0 0 22.482-38.206z" fill="#fb9700"/><circle cx="45.805" cy="82.195" fill="#ffd92e" r="27.888" transform="matrix(.16 -.987 .987 .16 -42.667 114.242)"/><g fill="#fcbe00"><path d="m52.024 65.248a3.817 3.817 0 1 0 3.817 3.817 3.817 3.817 0 0 0 -3.817-3.817z"/><circle cx="38.166" cy="93.675" r="4.935" transform="matrix(.987 -.16 .16 .987 -14.512 7.323)"/></g></g><g fill="#f47400"><path d="m80.751 44.774-9.73 9.73a1.75 1.75 0 1 0 2.479 2.475l9.731-9.73a1.75 1.75 0 1 0 -2.475-2.475z"/><path d="m83.227 60.389-4.748 4.748a1.75 1.75 0 1 0 2.474 2.475l4.747-4.748a1.75 1.75 0 0 0 -2.474-2.475z"/><path d="m65.136 42.3-4.748 4.749a1.749 1.749 0 1 0 2.474 2.474l4.748-4.748a1.75 1.75 0 0 0 -2.474-2.475z"/></g><g fill="#fcbe00"><path d="m61.794 80.789a1.954 1.954 0 1 0 1.954 1.953 1.953 1.953 0 0 0 -1.954-1.953z"/><circle cx="51.98" cy="96.675" r="1.953"/><path d="m39.01 67.882a1.954 1.954 0 1 0 1.953 1.953 1.953 1.953 0 0 0 -1.953-1.953z"/></g></g></svg>