<svg height="512" viewBox="0 0 128 128" width="512" xmlns="http://www.w3.org/2000/svg"><g><path d="m46.409 38.899h3.5v7.101h-3.5z" fill="#c5e2f9"/><path d="m114.576 63.279h6.424v21.442h-6.424z" fill="#4d5e80"/><path d="m13.424 87.306 8.07-2.585v-21.442l-8.07-2.585z" fill="#4d5e80"/><path d="m104.541 46h-73.012a4.966 4.966 0 0 0 -4.178 2.251 44.86 44.86 0 0 0 -5.857 15.028v21.442a44.86 44.86 0 0 0 5.857 15.028 4.966 4.966 0 0 0 4.178 2.251h73.012a4.965 4.965 0 0 0 4.178-2.251 44.839 44.839 0 0 0 5.857-15.028v-21.442a44.839 44.839 0 0 0 -5.857-15.028 4.965 4.965 0 0 0 -4.178-2.251z" fill="#c5e2f9"/><path d="m31.529 46h73.013v56h-73.013z" fill="#def6ff"/><path d="m7 60.694h6.424v26.612h-6.424z" fill="#def6ff"/><path d="m41.219 26h13.879v7.072h-13.879z" fill="#75e1f7"/><path d="m43.634 38.899h9.05l2.415-5.827h-13.88z" fill="#30cffc"/><path d="m31.527 81.583h73.013v3.5h-73.013z" fill="#c5e2f9"/><path d="m31.527 62.916h73.013v3.5h-73.013z" fill="#c5e2f9"/><g fill="#75e1f7"><path d="m48.159 60.196h39.752v8.942h-39.752z"/><path d="m48.159 78.863h39.752v8.942h-39.752z"/></g></g></svg>