<svg height="512" viewBox="0 0 128 128" width="512" xmlns="http://www.w3.org/2000/svg"><g><g><circle cx="64" cy="64" fill="#def6ff" r="57"/><path d="m28.366 17.22-5.044-10.22-5.044 10.22-11.278 1.639 8.161 7.955-1.927 11.233 10.088-5.304 10.088 5.304-1.927-11.233 8.161-7.955z" fill="#ffd92e"/><path d="m109.722 100.173-5.044-10.22-5.044 10.22-11.279 1.639 8.162 7.955-1.927 11.233 10.088-5.304 10.088 5.304-1.927-11.233 8.161-7.955z" fill="#ffd92e"/><g fill="#c5e2f9"><path d="m57.427 38.806a7.353 7.353 0 1 0 7.353 7.353 7.353 7.353 0 0 0 -7.353-7.353z"/><circle cx="72.832" cy="82.751" r="4.969" transform="matrix(.973 -.23 .23 .973 -17.064 18.947)"/><path d="m25.75 87.72a10.125 10.125 0 0 0 -9.68 7.14 57.217 57.217 0 0 0 11.48 12.96h.01a10.132 10.132 0 0 0 -1.81-20.1z"/><path d="m102.89 23.07a11.63 11.63 0 1 0 11.38 14.04 56.972 56.972 0 0 0 -10.58-14.01c-.27-.02-.53-.03-.8-.03z"/></g></g><g fill="#c5e2f9"><path d="m71.863 20.57a1.954 1.954 0 1 0 1.954 1.953 1.953 1.953 0 0 0 -1.954-1.953z"/><path d="m97.127 67.309a1.954 1.954 0 1 0 1.953 1.953 1.953 1.953 0 0 0 -1.953-1.953z"/><path d="m62.118 102.236a1.954 1.954 0 1 0 1.953 1.953 1.953 1.953 0 0 0 -1.953-1.953z"/><path d="m30.878 63a1.954 1.954 0 1 0 1.953 1.953 1.954 1.954 0 0 0 -1.953-1.953z"/></g></g></svg>