<svg height="512" viewBox="0 0 128 128" width="512" xmlns="http://www.w3.org/2000/svg"><g><path d="m19.79 68.377h76.419v43.819h-76.419z" fill="#def6ff"/><path d="m79.472 23.599 10.417 10.554 9.59-3.566-6.766-14.509z" fill="#def6ff"/><path d="m58 17a38.21 38.21 0 0 0 -38.21 38.21h76.42a38.21 38.21 0 0 0 -38.21-38.21z" fill="#75e1f7"/><path d="m14 112.195h88v8.805h-88z" fill="#4d5e80"/><path d="m95.416 9.011h14.506v22.512h-14.506z" fill="#4d5e80" transform="matrix(.906 -.423 .423 .906 1.054 45.289)"/><g fill="#ffd92e"><path d="m29.947 80.763h11.932v15.218h-11.932z"/><path d="m52.034 80.763h11.931v15.218h-11.931z"/><path d="m74.122 80.763h11.932v15.218h-11.932z"/></g><path d="m60.69 17.09c-.89-.06-1.79-.09-2.69-.09s-1.8.03-2.69.09l-.01.01c-3.6 3.71-11.79 14.72-11.79 38.11h3.5c0-14.36 3.29-23.61 6.04-28.84a29.584 29.584 0 0 1 4.95-7.01c2.93 2.95 10.99 13.14 10.99 35.85h3.5c0-23.39-8.19-34.4-11.79-38.11z" fill="#30cffc"/><path d="m14 55.21h88v13.167h-88z" fill="#4d5e80"/></g></svg>