<svg height="512" viewBox="0 0 128 128" width="512" xmlns="http://www.w3.org/2000/svg"><g><g fill="#4d5e80"><path d="m64 5.25a58.922 58.922 0 0 0 -43.22 18.956 1.75 1.75 0 0 0 2.574 2.371 55.252 55.252 0 0 1 82.3 1.123 1.75 1.75 0 1 0 2.638-2.3 58.765 58.765 0 0 0 -44.292-20.15z"/><path d="m104.646 101.423a55.252 55.252 0 0 1 -82.3-1.123 1.75 1.75 0 1 0 -2.638 2.3 58.752 58.752 0 0 0 87.511 1.193 1.75 1.75 0 0 0 -2.574-2.371z"/><g><path d="m10.352 44.625a1.752 1.752 0 0 0 -2.209 1.117q-.161.492-.313.986a1.75 1.75 0 1 0 3.346 1.029q.143-.463.292-.923a1.751 1.751 0 0 0 -1.116-2.209z"/><path d="m8.068 52.812a1.742 1.742 0 0 0 -2.013 1.439c-.056.338-.11.678-.161 1.018a1.749 1.749 0 0 0 1.473 1.989 1.769 1.769 0 0 0 .26.019 1.751 1.751 0 0 0 1.729-1.491c.048-.321.1-.642.151-.961a1.749 1.749 0 0 0 -1.439-2.013z"/><path d="m7.04 61.248h-.032a1.75 1.75 0 0 0 -1.749 1.719c-.006.343-.009.688-.009 1.033a1.75 1.75 0 0 0 3.5 0c0-.325 0-.648.008-.972a1.749 1.749 0 0 0 -1.718-1.78z"/><path d="m13.827 36.873a1.747 1.747 0 0 0 -2.35.776q-.233.461-.456.927a1.75 1.75 0 1 0 3.155 1.515q.21-.437.427-.869a1.749 1.749 0 0 0 -.776-2.349z"/><path d="m18.42 29.725a1.751 1.751 0 0 0 -2.439.418q-.3.421-.589.849a1.75 1.75 0 1 0 2.895 1.967q.272-.4.551-.794a1.751 1.751 0 0 0 -.418-2.44z"/></g><g><path d="m112.144 94.577a1.752 1.752 0 0 0 -2.431.463q-.272.4-.551.795a1.75 1.75 0 0 0 2.857 2.022q.3-.422.589-.849a1.75 1.75 0 0 0 -.464-2.431z"/><path d="m116.159 87.089a1.748 1.748 0 0 0 -2.335.82q-.21.436-.427.869a1.75 1.75 0 1 0 3.126 1.573q.233-.46.456-.927a1.75 1.75 0 0 0 -.82-2.335z"/><path d="m121 62.25a1.751 1.751 0 0 0 -1.75 1.75c0 .325 0 .648-.008.972a1.749 1.749 0 0 0 1.718 1.78h.032a1.75 1.75 0 0 0 1.749-1.719c.006-.343.009-.688.009-1.033a1.751 1.751 0 0 0 -1.75-1.75z"/><path d="m119.011 79.084a1.751 1.751 0 0 0 -2.187 1.159q-.142.464-.292.923a1.75 1.75 0 0 0 1.116 2.209 1.77 1.77 0 0 0 .547.087 1.75 1.75 0 0 0 1.662-1.2c.107-.328.211-.656.313-.987a1.751 1.751 0 0 0 -1.159-2.191z"/><path d="m120.633 70.742a1.749 1.749 0 0 0 -1.989 1.472c-.048.321-.1.641-.151.961a1.749 1.749 0 0 0 1.439 2.013 1.666 1.666 0 0 0 .289.024 1.75 1.75 0 0 0 1.724-1.463c.057-.338.11-.678.161-1.018a1.75 1.75 0 0 0 -1.473-1.989z"/></g></g><g><circle cx="64" cy="64" fill="#ffd92e" r="18.205"/><g fill="#75e1f7"><circle cx="104.305" cy="23.695" r="11.163"/><circle cx="23.695" cy="104.305" r="11.163"/></g></g><g fill="#ffd92e"><g><path d="m64 31.75a1.751 1.751 0 0 0 -1.75 1.75v4.945a1.75 1.75 0 0 0 3.5 0v-4.945a1.751 1.751 0 0 0 -1.75-1.75z"/><path d="m64 87.805a1.75 1.75 0 0 0 -1.75 1.75v4.945a1.75 1.75 0 0 0 3.5 0v-4.945a1.75 1.75 0 0 0 -1.75-1.75z"/></g><g><path d="m94.5 62.25h-4.945a1.75 1.75 0 0 0 0 3.5h4.945a1.75 1.75 0 0 0 0-3.5z"/><path d="m38.445 62.25h-4.945a1.75 1.75 0 0 0 0 3.5h4.945a1.75 1.75 0 0 0 0-3.5z"/></g><g><path d="m84.33 41.2-3.5 3.5a1.749 1.749 0 1 0 2.474 2.474l3.5-3.5a1.749 1.749 0 1 0 -2.474-2.474z"/><path d="m44.693 80.832-3.5 3.5a1.749 1.749 0 1 0 2.477 2.468l3.5-3.5a1.75 1.75 0 0 0 -2.474-2.475z"/></g><g><path d="m83.307 80.832a1.75 1.75 0 0 0 -2.474 2.475l3.5 3.5a1.749 1.749 0 1 0 2.467-2.477z"/><path d="m43.67 41.2a1.749 1.749 0 0 0 -2.47 2.47l3.5 3.5a1.749 1.749 0 0 0 2.474-2.474z"/></g></g></g></svg>