<svg height="512" viewBox="0 0 128 128" width="512" xmlns="http://www.w3.org/2000/svg"><g><path d="m27.623 9.571a27.374 27.374 0 0 0 -13.241 36.378l49.618-23.137a27.373 27.373 0 0 0 -36.377-13.241z" fill="#f95353"/><path d="m100.377 9.571a27.373 27.373 0 0 0 -36.377 13.241l49.618 23.137a27.374 27.374 0 0 0 -13.241-36.378z" fill="#f95353"/><g fill="#def6ff"><path d="m27.623 9.571s-5.422 9.964 3.3 28.665l16.539-7.712c-8.722-18.701-19.839-20.953-19.839-20.953z"/><path d="m80.539 30.524 16.539 7.712c8.721-18.7 3.3-28.665 3.3-28.665s-11.118 2.252-19.839 20.953z"/></g><path d="m113.584 45.929-3.625-1.691-32.394 23.528 21.135-28.776-3.234-1.508-22.192 30.218 8.883-36.418-3.235-1.512-8.466 34.711-2.8-39.966-3.625-1.691 3.679 52.652-3.71 7.966-3.715-7.966 3.679-52.652-3.625 1.691-2.8 39.966-8.461-34.711-3.235 1.508 8.883 36.422-22.188-30.218-3.238 1.508 21.135 28.776-32.394-23.528-3.625 1.691 42.7 31.023 4.879 10.462-7.751 11.242a1.751 1.751 0 1 0 2.883 1.987l6.873-9.976 6.873 9.976a1.751 1.751 0 0 0 2.883-1.987l-7.747-11.242 4.879-10.462z" fill="#4d5e80"/><path d="m49.588 97.997h28.824v23.003h-28.824z" fill="#fb9700"/><circle cx="64" cy="109.498" fill="#ffd92e" r="5.74"/></g></svg>