<svg height="512" viewBox="0 0 128 128" width="512" xmlns="http://www.w3.org/2000/svg"><g><g fill="#4d5e80"><path d="m7 87.125v13.556l14.617-6.658v-30.125l-9.12 17.801z"/><path d="m106.383 63.898v30.125l14.617 6.658v-13.556l-5.497-5.426z"/><path d="m28.16 101.144h7.84v-7.121h-10.396z"/></g><path d="m21.617 57.5v36.523h14.383v-67.167s-14.383 5.944-14.383 30.644z" fill="#def6ff"/><path d="m22.3 48.69h13.7v-21.83s-10.842 4.48-13.7 21.83z" fill="#75e1f7"/><path d="m92 101.144h7.84l2.556-7.121h-10.396z" fill="#4d5e80"/><path d="m92 26.856v67.167h14.383v-36.523c0-24.7-14.383-30.644-14.383-30.644z" fill="#def6ff"/><path d="m92 26.86v21.83h13.7c-2.858-17.35-13.7-21.83-13.7-21.83z" fill="#75e1f7"/><path d="m76.032 60.648h-24.064v-5.82l-9.172 9.172 9.172 9.172v-5.82h24.064v5.82l9.172-9.172-9.172-9.172z" fill="#ffd92e"/></g></svg>