<svg height="512" viewBox="0 0 128 128" width="512" xmlns="http://www.w3.org/2000/svg"><g><g><circle cx="64" cy="64" fill="#ffd92e" r="40.189"/><g fill="#fcbe00"><circle cx="53.41" cy="41.763" r="4.504"/><path d="m43.82 67.764a3.722 3.722 0 1 0 3.722 3.722 3.722 3.722 0 0 0 -3.722-3.722z"/><path d="m86 56.539a7.14 7.14 0 1 0 7.14 7.14 7.14 7.14 0 0 0 -7.14-7.14z"/></g><path d="m90.7 33.964a40.405 40.405 0 0 1 4.423 4.611c8.5-.192 14.335 1.517 15.685 5.227 2.913 8-16.139 22.281-42.554 31.9s-50.188 10.921-53.1 2.92c-1.35-3.71 2.021-8.769 8.657-14.087 0-.176 0-.353 0-.53a40.614 40.614 0 0 1 .421-5.841c-12.604 9.153-19.371 19.013-16.688 26.384 4.461 12.252 33.356 12.991 64.533 1.642s52.839-30.483 48.379-42.738c-2.684-7.373-14.208-10.576-29.756-9.488z" fill="#f95353"/></g><g fill="#fcbe00"><path d="m73.95 91.508a1.954 1.954 0 1 0 1.95 1.954 1.953 1.953 0 0 0 -1.95-1.954z"/><path d="m75.9 41.763a1.954 1.954 0 1 0 1.953 1.954 1.954 1.954 0 0 0 -1.953-1.954z"/><path d="m61.821 61.726a1.954 1.954 0 1 0 1.953 1.953 1.953 1.953 0 0 0 -1.953-1.953z"/><path d="m38.145 52.632a1.954 1.954 0 1 0 1.955 1.954 1.953 1.953 0 0 0 -1.955-1.954z"/></g><g fill="#ffd92e"><g><path d="m30.087 22.584h-2.209a1.75 1.75 0 0 0 0 3.5h2.209a1.75 1.75 0 0 0 0-3.5z"/><path d="m20.79 22.584h-2.209a1.75 1.75 0 0 0 0 3.5h2.209a1.75 1.75 0 0 0 0-3.5z"/><path d="m24.334 26.128a1.75 1.75 0 0 0 -1.75 1.75v2.209a1.75 1.75 0 0 0 3.5 0v-2.209a1.75 1.75 0 0 0 -1.75-1.75z"/><path d="m24.334 16.831a1.75 1.75 0 0 0 -1.75 1.75v2.209a1.75 1.75 0 0 0 3.5 0v-2.209a1.75 1.75 0 0 0 -1.75-1.75z"/></g><g><path d="m109.419 101.916h-2.209a1.75 1.75 0 1 0 0 3.5h2.209a1.75 1.75 0 0 0 0-3.5z"/><path d="m100.122 101.916h-2.209a1.75 1.75 0 0 0 0 3.5h2.209a1.75 1.75 0 1 0 0-3.5z"/><path d="m103.666 105.459a1.75 1.75 0 0 0 -1.75 1.75v2.209a1.75 1.75 0 0 0 3.5 0v-2.209a1.75 1.75 0 0 0 -1.75-1.75z"/><path d="m103.666 96.163a1.75 1.75 0 0 0 -1.75 1.75v2.209a1.75 1.75 0 1 0 3.5 0v-2.209a1.75 1.75 0 0 0 -1.75-1.75z"/></g></g></g></svg>