<svg height="512" viewBox="0 0 128 128" width="512" xmlns="http://www.w3.org/2000/svg"><g><path d="m42.977 89.385a21.684 21.684 0 0 0 3.809 18.715 21.687 21.687 0 0 0 3.814-18.715z" fill="#ffd92e"/><path d="m30.165 89.385h10.087v-16.588l-9.02 8.619z" fill="#4d5e80"/><path d="m58.91 95.993h10.18l1.286-6.608h-12.752z" fill="#4d5e80"/><path d="m64 7s-10.679 7.614-10.679 20.836v61.549h21.358v-61.549c0-13.222-10.679-20.836-10.679-20.836z" fill="#def6ff"/><path d="m46.786 42.979s-6.534 4.658-6.534 12.748v33.658h13.069v-33.658c0-8.09-6.535-12.748-6.535-12.748z" fill="#c5e2f9"/><path d="m77.4 89.385a21.687 21.687 0 0 0 3.81 18.714 21.688 21.688 0 0 0 3.809-18.714z" fill="#ffd92e"/><path d="m87.748 72.797v16.588h10.087l-1.067-7.969z" fill="#4d5e80"/><path d="m81.214 42.979s-6.535 4.658-6.535 12.748v33.658h13.069v-33.658c0-8.09-6.534-12.748-6.534-12.748z" fill="#c5e2f9"/><path d="m64.005 7s-10.681 7.61-10.681 20.84h21.35c0-13.23-10.669-20.84-10.669-20.84z" fill="#f95353"/><path d="m58.91 95.993a28.98 28.98 0 0 0 5.09 25.007 28.98 28.98 0 0 0 5.09-25.007z" fill="#ffd92e"/></g></svg>