<svg height="512" viewBox="0 0 128 128" width="512" xmlns="http://www.w3.org/2000/svg"><g><path d="m51.647 17.491a1.75 1.75 0 0 0 -1.75 1.75v15.734a1.75 1.75 0 0 0 3.5 0v-15.734a1.75 1.75 0 0 0 -1.75-1.75z" fill="#75e1f7"/><g><path d="m18.899 69.759 11.899 6.817h66.404l11.899-6.817v-6.817h-90.202z" fill="#3c4566"/><path d="m34.759 67.874a4.112 4.112 0 0 0 -5.674 1.792l-7.646 15.568 5.819 3.158 9.029-14.767a4.114 4.114 0 0 0 -1.528-5.751z" fill="#ffd92e"/><path d="m63.944 67.874a4.112 4.112 0 0 0 -5.674 1.792l-7.646 15.568 5.819 3.158 9.029-14.767a4.114 4.114 0 0 0 -1.528-5.751z" fill="#ffd92e"/><path d="m93.241 67.874a4.114 4.114 0 0 0 -1.528 5.751l9.029 14.767 5.819-3.158-7.646-15.568a4.112 4.112 0 0 0 -5.674-1.792z" fill="#ffd92e"/><g fill="#4d5e80"><circle cx="109.101" cy="96.86" r="11.899"/><circle cx="18.899" cy="96.86" r="11.899"/><circle cx="48.084" cy="96.86" r="11.899" transform="matrix(.16 -.987 .987 .16 -55.227 128.808)"/><path d="m18.899 34.975-11.899 3.548v20.87l11.899 3.549h90.202l4.936-3.549v-10.159l-33.163-14.259z"/></g><path d="m76.294 34.975v11.562l8.25 4.778 29.493 3.583v-5.664l-33.163-14.259z" fill="#75e1f7"/><path d="m109.1 91.924a4.936 4.936 0 1 0 4.936 4.936 4.936 4.936 0 0 0 -4.936-4.936z" fill="#def6ff"/><path d="m18.9 91.924a4.936 4.936 0 1 0 4.936 4.936 4.936 4.936 0 0 0 -4.936-4.936z" fill="#def6ff"/><circle cx="48.084" cy="96.86" fill="#def6ff" r="4.936" transform="matrix(.122 -.993 .993 .122 -53.925 132.749)"/></g><g fill="#3c4566"><path d="m51.647 40.641a1.751 1.751 0 0 0 -1.75 1.75v4.146a1.75 1.75 0 0 0 3.5 0v-4.146a1.751 1.751 0 0 0 -1.75-1.75z"/><path d="m41.647 40.641a1.751 1.751 0 0 0 -1.75 1.75v4.146a1.75 1.75 0 0 0 3.5 0v-4.146a1.751 1.751 0 0 0 -1.75-1.75z"/><path d="m31.647 40.641a1.751 1.751 0 0 0 -1.75 1.75v4.146a1.75 1.75 0 0 0 3.5 0v-4.146a1.751 1.751 0 0 0 -1.75-1.75z"/></g></g></svg>