<svg height="512" viewBox="0 0 128 128" width="512" xmlns="http://www.w3.org/2000/svg"><g><g><path d="m36.572 43.743-29.572 18.606 5.848 32.342 13.487 15.197 24.913 11.112 17.681-21.527 6.712-26.363-13.202-31.541z" fill="#ffd92e"/><path d="m36.572 43.743 2.448 30.806 10.254 19.167 1.974 27.284 17.681-21.527 6.712-26.363-13.202-31.541z" fill="#fcbe00"/><path d="m102.852 7-17.65 3.933-13.245 14.35 9.739 29.252 19.538 18.519 19.766-23.437-1.997-28.32z" fill="#ffd92e"/><path d="m102.852 7-17.65 3.933 16.361 18.032 1.868 21.403-2.197 22.686 19.766-23.437-1.997-28.32z" fill="#fcbe00"/></g><path d="m62.446 74.237a1.954 1.954 0 1 0 1.954 1.953 1.953 1.953 0 0 0 -1.954-1.953z" fill="#ffd92e"/><path d="m93.363 45.359a1.954 1.954 0 1 0 1.953 1.954 1.954 1.954 0 0 0 -1.953-1.954z" fill="#fcbe00"/><path d="m58.539 85.008a1.953 1.953 0 1 0 1.953 1.953 1.953 1.953 0 0 0 -1.953-1.953z" fill="#ffd92e"/><path d="m27.56 94.907a1.954 1.954 0 1 0 1.954 1.953 1.953 1.953 0 0 0 -1.954-1.953z" fill="#fcbe00"/><path d="m111.163 31.573a1.954 1.954 0 1 0 1.953 1.954 1.954 1.954 0 0 0 -1.953-1.954z" fill="#ffd92e"/><path d="m87.2 34.48a1.954 1.954 0 1 0 1.953 1.954 1.954 1.954 0 0 0 -1.953-1.954z" fill="#fcbe00"/><path d="m23.9 68.491a1.954 1.954 0 1 0 1.954 1.953 1.953 1.953 0 0 0 -1.954-1.953z" fill="#fcbe00"/><path d="m49.294 55.675a1.954 1.954 0 1 0 1.954 1.953 1.954 1.954 0 0 0 -1.954-1.953z" fill="#ffd92e"/></g></svg>