<svg height="512" viewBox="0 0 128 128" width="512" xmlns="http://www.w3.org/2000/svg"><g><path d="m76.269 37.057h7.951v3.5h-7.951z" fill="#30cffc"/><path d="m76.269 51.358h7.951v3.5h-7.951z" fill="#30cffc"/><path d="m64 101.425a1.751 1.751 0 0 0 -1.75 1.75v12.549a1.75 1.75 0 0 0 3.5 0v-12.549a1.751 1.751 0 0 0 -1.75-1.75z" fill="#c5e2f9"/><path d="m60.649 80.5h6.7a13.113 13.113 0 0 0 2.733-7.573h-12.167a13.11 13.11 0 0 0 2.734 7.573z" fill="#c5e2f9"/><path d="m55.406 66.165h17.188v6.757h-17.188z" fill="#4d5e80"/><path d="m64 80.25a22.925 22.925 0 0 0 -22.925 22.925h45.85a22.925 22.925 0 0 0 -22.925-22.925z" fill="#def6ff"/><path d="m64 110.447a5.277 5.277 0 1 0 5.276 5.277 5.276 5.276 0 0 0 -5.276-5.277z" fill="#ffd92e"/><path d="m84.221 31.657h36.779v28.603h-36.779z" fill="#75e1f7"/><path d="m7 31.657h36.779v28.603h-36.779z" fill="#75e1f7"/><path d="m69.416 17-1.261-10h-8.31l-1.261 10a14.086 14.086 0 0 0 -6.853 8.747v40.418h24.538v-40.414a14.086 14.086 0 0 0 -6.853-8.751z" fill="#def6ff"/><path d="m69.415 17h-10.83a14.074 14.074 0 0 0 -6.85 8.75h24.53a14.074 14.074 0 0 0 -6.85-8.75z" fill="#4d5e80"/><g fill="#30cffc"><path d="m84.221 44.208h36.779v3.5h-36.779z"/><path d="m94.73 31.657h3.5v28.603h-3.5z"/><path d="m106.99 31.657h3.5v28.603h-3.5z"/><path d="m43.779 37.057h7.951v3.5h-7.951z"/><path d="m43.779 51.358h7.951v3.5h-7.951z"/><path d="m7 44.208h36.779v3.5h-36.779z"/><path d="m29.769 31.657h3.5v28.603h-3.5z"/><path d="m17.51 31.657h3.5v28.603h-3.5z"/></g></g></svg>