<svg height="512" viewBox="0 0 128 128" width="512" xmlns="http://www.w3.org/2000/svg"><g><path d="m64 5.25a58.75 58.75 0 1 0 58.75 58.75 58.816 58.816 0 0 0 -58.75-58.75zm0 114a55.25 55.25 0 1 1 55.25-55.25 55.313 55.313 0 0 1 -55.25 55.25z" fill="#def6ff"/><path d="m64 25.733a38.267 38.267 0 1 0 38.267 38.267 38.31 38.31 0 0 0 -38.267-38.267zm0 73.034a34.767 34.767 0 1 1 34.767-34.767 34.807 34.807 0 0 1 -34.767 34.767z" fill="#def6ff"/><g><circle cx="64" cy="64" fill="#ffd92e" r="16.034" transform="matrix(.982 -.189 .189 .982 -10.948 13.258)"/><path d="m17.331 17.331a9 9 0 1 0 12.728 0 9 9 0 0 0 -12.728 0z" fill="#a9db1f"/><circle cx="104.305" cy="104.305" fill="#f95353" r="9"/><path d="m83.458 31.815a9 9 0 1 0 12.727 0 9 9 0 0 0 -12.727 0z" fill="#75e1f7"/><circle cx="38.178" cy="89.821" fill="#fb9700" r="9"/></g></g></svg>