<svg height="512" viewBox="0 0 128 128" width="512" xmlns="http://www.w3.org/2000/svg"><g><path d="m78.933 7h-29.866a5.021 5.021 0 0 0 -4.433 2.678c-12.573 23.773-14.834 44.222-14.834 44.222l5.748 12.136h56.91l5.742-12.136s-2.261-20.449-14.834-44.222a5.021 5.021 0 0 0 -4.433-2.678z" fill="#def6ff"/><g fill="#4d5e80"><path d="m20.872 121 14.673-7.711v-30.624l-14.673 17.312z"/><path d="m92.455 113.289 14.673 7.711v-21.023l-14.673-17.312z"/><path d="m46.935 121h34.13l4.217-7.711h-42.564z"/></g><path d="m29.794 53.9 10.78 3.23 10.84-3.12a174.61 174.61 0 0 1 3.786-36.03h-14.626c-9.02 20.04-10.78 35.92-10.78 35.92z" fill="#c5e2f9"/><path d="m72.793 17.98a174.61 174.61 0 0 1 3.79 36.03l10.84 3.12 10.777-3.23s-1.76-15.88-10.78-35.92z" fill="#c5e2f9"/><path d="m78.934 7h-29.87a5.024 5.024 0 0 0 -4.43 2.68c-1.49 2.82-2.84 5.6-4.06 8.3h46.85c-1.22-2.7-2.56-5.48-4.06-8.3a5.024 5.024 0 0 0 -4.43-2.68z" fill="#4d5e80"/><path d="m35.545 66.034h56.91v47.254h-56.91z" fill="#75e1f7"/><circle cx="64" cy="89.662" fill="#def6ff" r="10.085"/></g></svg>