<svg height="512" viewBox="0 0 128 128" width="512" xmlns="http://www.w3.org/2000/svg"><g><path d="m42.497 18.819h9.314v3.5h-9.314z" fill="#c5e2f9" transform="matrix(.707 -.707 .707 .707 -.733 39.368)"/><g><path d="m33 34.724a15.361 15.361 0 0 0 21.724 0l-21.724-21.724a15.361 15.361 0 0 0 0 21.724z" fill="#def6ff"/><path d="m47.532 14.36a4.123 4.123 0 1 0 5.831 0 4.123 4.123 0 0 0 -5.831 0z" fill="#ffd92e"/><path d="m32.5 30.894a3.717 3.717 0 0 0 -3.674 3.154l-1.681 10.952h10.71l-1.681-10.952a3.717 3.717 0 0 0 -3.674-3.154z" fill="#75e1f7"/><path d="m109.784 47.787a5 5 0 0 0 -4.484-2.787h-93.8a4.5 4.5 0 0 0 -4.5 4.5v44.357h114v-21.011a9.991 9.991 0 0 0 -1.033-4.426z" fill="#def6ff"/><path d="m104.027 83.96h-17.054l-8.962 9.897h-28.022l-8.962-9.897h-17.054l-8.962 9.897h-8.011v8.234h114v-8.234h-8.011z" fill="#fb9700"/><path d="m111.73 51.73h-21.59v18.78h30.58a9.844 9.844 0 0 0 -.75-2.09z" fill="#75e1f7"/><circle cx="32.5" cy="102.091" fill="#4d5e80" r="12.909" transform="matrix(.987 -.16 .16 .987 -15.934 6.524)"/><circle cx="95.5" cy="102.091" fill="#4d5e80" r="12.909" transform="matrix(.987 -.16 .16 .987 -15.12 16.616)"/><g fill="#def6ff"><path d="m32.5 96.737a5.355 5.355 0 1 0 5.355 5.354 5.354 5.354 0 0 0 -5.355-5.354z"/><path d="m95.5 96.737a5.355 5.355 0 1 0 5.355 5.354 5.354 5.354 0 0 0 -5.355-5.354z"/></g></g><g fill="#c5e2f9"><path d="m62.25 45h3.5v48.856h-3.5z"/><g><path d="m27.144 72.73h10.711v3.5h-10.711z"/><path d="m27.144 62.73h10.711v3.5h-10.711z"/><path d="m27.144 52.73h10.711v3.5h-10.711z"/></g></g></g></svg>