<svg height="512" viewBox="0 0 128 128" width="512" xmlns="http://www.w3.org/2000/svg"><g><g><path d="m58.003 7h11.994v14.092h-11.994z" fill="#75e1f7"/><rect fill="#def6ff" height="99.908" rx="5" width="74" x="27" y="21.092"/><rect fill="#f95353" height="61.973" rx="3" width="52.978" x="37.511" y="48.516"/><g fill="#ff3636"><path d="m51.415 59.471a3.817 3.817 0 1 0 3.817 3.817 3.817 3.817 0 0 0 -3.817-3.817z"/><path d="m56.382 92.953a3.817 3.817 0 1 0 3.818 3.817 3.817 3.817 0 0 0 -3.818-3.817z"/><path d="m78.6 77.532a3.817 3.817 0 1 0 3.817 3.816 3.816 3.816 0 0 0 -3.817-3.816z"/></g></g><g fill="#ff3636"><path d="m76.734 60.335a1.954 1.954 0 1 0 1.953 1.953 1.953 1.953 0 0 0 -1.953-1.953z"/><path d="m74.929 95.74a1.954 1.954 0 1 0 1.953 1.954 1.954 1.954 0 0 0 -1.953-1.954z"/><path d="m47.277 81.165a1.954 1.954 0 1 0 1.954 1.953 1.953 1.953 0 0 0 -1.954-1.953z"/><path d="m64.152 76.525a1.954 1.954 0 1 0 1.953 1.954 1.954 1.954 0 0 0 -1.953-1.954z"/></g><path d="m27 36.255h74v3.5h-74z" fill="#c5e2f9"/></g></svg>