<svg height="512" viewBox="0 0 128 128" width="512" xmlns="http://www.w3.org/2000/svg"><g><g fill="#def6ff"><path d="m33.606 103.582h-7.355v3.5h8.381a1.749 1.749 0 0 0 1.528-.9l2.919-5.222-3.055-1.708z"/><path d="m91.976 99.256-3.055 1.708 2.919 5.222a1.749 1.749 0 0 0 1.528.9h8.381v-3.5h-7.355z"/><path d="m120.632 30.336a1.75 1.75 0 1 0 -3.317 1.116l1.635 4.865-3.8 3.025-3.805-3.025 1.636-4.865a1.75 1.75 0 0 0 -3.318-1.116l-2.027 6.03a1.751 1.751 0 0 0 .57 1.927l5.194 4.129v25.8h-11.651v3.5h13.4a1.751 1.751 0 0 0 1.75-1.75v-27.55l5.193-4.129a1.751 1.751 0 0 0 .57-1.927z"/><path d="m14.6 42.422 5.2-4.129a1.751 1.751 0 0 0 .57-1.927l-2.027-6.03a1.75 1.75 0 0 0 -3.318 1.116l1.636 4.865-3.8 3.025-3.8-3.025 1.635-4.865a1.75 1.75 0 1 0 -3.317-1.116l-2.027 6.03a1.749 1.749 0 0 0 .57 1.927l5.178 4.129v27.554a1.751 1.751 0 0 0 1.75 1.75h13.4v-3.5h-11.65z"/></g><g><path d="m26.251 66.385h7.058v7.182h-7.058z" fill="#fb9700"/><path d="m94.691 66.385h7.058v7.182h-7.058z" fill="#fb9700"/><path d="m59.239 41.578h9.523v10.379h-9.523z" fill="#4d5e80"/><path d="m56.016 51.957h15.969v9.752h-15.969z" fill="#c5e2f9"/><path d="m34.497 98.402 6.11 3.416 4.768-8.529-3.968-7.247z" fill="#fb9700"/><path d="m82.625 93.289 4.768 8.529 6.11-3.416-6.91-12.36z" fill="#fb9700"/><path d="m49.645 101.086h28.71l12.508-22.842h-53.726z" fill="#c5e2f9"/><rect fill="#def6ff" height="34.578" rx="17.289" width="58.111" x="34.945" y="7"/><path d="m90.862 61.708h-53.724a3.829 3.829 0 0 0 -3.829 3.829v12.707h61.382v-12.707a3.829 3.829 0 0 0 -3.829-3.829z" fill="#def6ff"/><rect fill="#4d5e80" height="31.335" rx="3" width="19.251" x="7" y="89.665"/><circle cx="12.854" cy="69.976" fill="#fb9700" r="4.684"/><rect fill="#4d5e80" height="31.335" rx="3" width="19.251" x="101.749" y="89.665"/><circle cx="115.146" cy="69.976" fill="#fb9700" r="4.684"/><g fill="#4d5e80"><path d="m52.257 16.374a7.915 7.915 0 1 0 7.915 7.915 7.914 7.914 0 0 0 -7.915-7.915z"/><path d="m75.743 16.374a7.915 7.915 0 1 0 7.915 7.915 7.915 7.915 0 0 0 -7.915-7.915z"/></g></g><g fill="#3c4566"><path d="m7 98.36h19.251v3.5h-19.251z"/><path d="m7 108.805h19.251v3.5h-19.251z"/></g><g fill="#3c4566"><path d="m101.749 98.36h19.251v3.5h-19.251z"/><path d="m101.749 108.805h19.251v3.5h-19.251z"/></g></g></svg>