<svg height="512" viewBox="0 0 128 128" width="512" xmlns="http://www.w3.org/2000/svg"><g><g><path d="m92.81 110.81c-.082 0-.162.011-.244.013a5.99 5.99 0 0 0 -9.324-4.176 8.379 8.379 0 0 0 -12.284-4.181 26.724 26.724 0 0 1 -2.446-9.282h-9.024a26.724 26.724 0 0 1 -2.446 9.282 8.379 8.379 0 0 0 -12.284 4.181 5.99 5.99 0 0 0 -9.324 4.176c-.082 0-.162-.013-.244-.013a10.19 10.19 0 0 0 -10.19 10.19h78a10.19 10.19 0 0 0 -10.19-10.19z" fill="#def6ff"/><path d="m58.947 81.288c-5.203 10.054 5.053 16.357 5.053 16.357s10.256-6.3 5.053-16.357z" fill="#ffd92e"/><g fill="#4d5e80"><path d="m56.16 81.288h15.68l2.556-7.121h-20.792z"/><path d="m35 67.269v13.556l14.617-6.658v-30.125l-9.12 17.801z"/><path d="m78.383 44.042v30.125l14.617 6.658v-13.556l-5.497-5.426z"/></g><path d="m64 7s-14.383 5.94-14.383 30.641v36.526h28.766v-36.526c0-24.701-14.383-30.641-14.383-30.641z" fill="#def6ff"/><path d="m64 7s-10.84 4.48-13.7 21.83h27.41c-2.864-17.35-13.71-21.83-13.71-21.83z" fill="#75e1f7"/><path d="m64 44.427a7.072 7.072 0 1 0 7.071 7.073 7.071 7.071 0 0 0 -7.071-7.073z" fill="#75e1f7"/></g><g fill="#c5e2f9"><path d="m56.248 109.862a7.527 7.527 0 0 0 -7.518 7.519 1.75 1.75 0 0 0 3.5 0 4.023 4.023 0 0 1 4.018-4.019 1.75 1.75 0 0 0 0-3.5z"/><path d="m71.752 109.862a1.75 1.75 0 1 0 0 3.5 4.023 4.023 0 0 1 4.017 4.019 1.75 1.75 0 0 0 3.5 0 7.526 7.526 0 0 0 -7.517-7.519z"/></g></g></svg>