<svg height="512" viewBox="0 0 128 128" width="512" xmlns="http://www.w3.org/2000/svg"><g><path d="m57.504 52.587h12.992v22.826h-12.992z" fill="#c5e2f9"/><path d="m7 22.001h37.406v24.938h-37.406z" fill="#75e1f7"/><path d="m83.594 22.001h37.406v24.938h-37.406z" fill="#75e1f7"/><path d="m53.158 16.353h21.684v36.234h-21.684z" fill="#def6ff"/><path d="m56.058 7-2.9 9.353h21.684l-2.9-9.353z" fill="#4d5e80"/><path d="m53.158 75.413h21.684v36.234h-21.684z" fill="#def6ff"/><path d="m56.058 121h15.884l2.9-9.353h-21.684z" fill="#4d5e80"/><path d="m83.594 81.061h37.406v24.938h-37.406z" fill="#75e1f7"/><path d="m7 81.061h37.406v24.938h-37.406z" fill="#75e1f7"/><g fill="#30cffc"><path d="m33.688 22.001h-3.5v10.719h-8.969v-10.719h-3.5v10.719h-10.719v3.5h10.719v10.718h3.5v-10.718h8.969v10.718h3.5v-10.718h19.47v-3.5h-19.47z"/><path d="m33.688 81.062h-3.5v10.718h-8.969v-10.718h-3.5v10.718h-10.719v3.5h10.719v10.719h3.5v-10.719h8.969v10.719h3.5v-10.719h19.47v-3.5h-19.47z"/><path d="m110.281 22.001h-3.5v10.719h-8.968v-10.719h-3.5v10.719h-19.471v3.5h19.471v10.718h3.5v-10.718h8.968v10.718h3.5v-10.718h10.719v-3.5h-10.719z"/><path d="m110.281 81.062h-3.5v10.718h-8.968v-10.718h-3.5v10.718h-19.471v3.5h19.471v10.719h3.5v-10.719h8.968v10.719h3.5v-10.719h10.719v-3.5h-10.719z"/></g></g></svg>