<svg height="512" viewBox="0 0 128 128" width="512" xmlns="http://www.w3.org/2000/svg"><g><g><path d="m36.742 74.167h8.417v7.121h-8.417z" fill="#75e1f7"/><path d="m82.842 74.167h8.417v7.121h-8.417z" fill="#75e1f7"/><g fill="#4d5e80"><path d="m56.16 81.288h15.68l2.556-7.121h-20.792z"/><path d="m39.3 54.971-7.427 3.9a10 10 0 0 0 -5.147 6.849l-1.726 8.447h28.6v-48.6z"/><path d="m96.125 58.872-7.427-3.9-14.298-29.41v48.605h28.6l-1.728-8.446a10 10 0 0 0 -5.147-6.849z"/></g><path d="m92.81 110.81c-.082 0-.162.011-.244.013a5.99 5.99 0 0 0 -9.324-4.176 8.379 8.379 0 0 0 -12.284-4.181 26.724 26.724 0 0 1 -2.446-9.282h-9.024a26.724 26.724 0 0 1 -2.446 9.282 8.379 8.379 0 0 0 -12.284 4.181 5.99 5.99 0 0 0 -9.324 4.176c-.082 0-.162-.013-.244-.013a10.19 10.19 0 0 0 -10.19 10.19h78a10.19 10.19 0 0 0 -10.19-10.19z" fill="#def6ff"/><path d="m58.947 81.288c-5.203 10.054 5.053 16.357 5.053 16.357s10.256-6.3 5.053-16.357z" fill="#ffd92e"/><path d="m64 7a6.905 6.905 0 0 0 -5.79 3.13 28.263 28.263 0 0 0 -4.61 15.432v48.605h20.8v-48.6a28.263 28.263 0 0 0 -4.61-15.437 6.905 6.905 0 0 0 -5.79-3.13z" fill="#def6ff"/><path d="m64 7a6.9 6.9 0 0 0 -5.79 3.13 28.254 28.254 0 0 0 -4.61 15.43h20.8a28.254 28.254 0 0 0 -4.61-15.43 6.9 6.9 0 0 0 -5.79-3.13z" fill="#75e1f7"/></g><path d="m56.248 109.862a7.527 7.527 0 0 0 -7.518 7.519 1.75 1.75 0 0 0 3.5 0 4.023 4.023 0 0 1 4.018-4.019 1.75 1.75 0 0 0 0-3.5z" fill="#c5e2f9"/><path d="m71.752 109.862a1.75 1.75 0 1 0 0 3.5 4.023 4.023 0 0 1 4.017 4.019 1.75 1.75 0 0 0 3.5 0 7.526 7.526 0 0 0 -7.517-7.519z" fill="#c5e2f9"/><g fill="#75e1f7"><path d="m87.05 86.028a1.75 1.75 0 0 0 -1.75 1.75v5.451a1.75 1.75 0 0 0 3.5 0v-5.451a1.75 1.75 0 0 0 -1.75-1.75z"/><path d="m40.95 86.028a1.75 1.75 0 0 0 -1.75 1.75v5.451a1.75 1.75 0 0 0 3.5 0v-5.451a1.75 1.75 0 0 0 -1.75-1.75z"/></g></g></svg>