<svg height="512" viewBox="0 0 128 128" width="512" xmlns="http://www.w3.org/2000/svg"><g><g><path d="m60.071 70.043c-4.046 7.818 3.929 12.719 3.929 12.719s7.975-4.9 3.929-12.719z" fill="#ffd92e"/><g fill="#4d5e80"><path d="m39.39 58.146v11.504l12.404-5.65v-25.565l-7.74 15.106z"/><path d="m76.206 38.435v25.565l12.404 5.65v-11.504l-4.664-4.605z"/><path d="m57.347 70.043h13.306l2.169-6.043h-17.644z"/></g><path d="m64 7s-12.206 5.041-12.206 26v31h24.412v-31c0-20.959-12.206-26-12.206-26z" fill="#def6ff"/><path d="m64 7s-9.21 3.8-11.63 18.53h23.25c-2.42-14.73-11.62-18.53-11.62-18.53z" fill="#75e1f7"/><circle cx="64" cy="44.763" fill="#75e1f7" r="6.001" transform="matrix(.122 -.993 .993 .122 11.753 102.814)"/></g><g fill="#75e1f7"><path d="m64 88.217a1.749 1.749 0 0 0 -1.75 1.75v9.611a1.75 1.75 0 0 0 3.5 0v-9.611a1.749 1.749 0 0 0 -1.75-1.75z"/><path d="m86.052 99.309a1.749 1.749 0 0 0 -1.75 1.75v9.659a1.75 1.75 0 0 0 3.5 0v-9.659a1.749 1.749 0 0 0 -1.75-1.75z"/><path d="m64 114.168a1.749 1.749 0 0 0 -1.75 1.75v5.082a1.75 1.75 0 0 0 3.5 0v-5.082a1.749 1.749 0 0 0 -1.75-1.75z"/><path d="m97.344 94.594a1.749 1.749 0 0 0 -1.75 1.75v2.644a1.75 1.75 0 0 0 3.5 0v-2.644a1.75 1.75 0 0 0 -1.75-1.75z"/><path d="m30.656 94.594a1.75 1.75 0 0 0 -1.75 1.75v2.644a1.75 1.75 0 0 0 3.5 0v-2.644a1.749 1.749 0 0 0 -1.75-1.75z"/><g><path d="m79.522 71.832a1.75 1.75 0 0 0 -1.75 1.75v11.163a1.75 1.75 0 0 0 3.5 0v-11.163a1.749 1.749 0 0 0 -1.75-1.75z"/><path d="m48.477 71.832a1.75 1.75 0 0 0 -1.75 1.75v11.163a1.75 1.75 0 0 0 3.5 0v-11.163a1.749 1.749 0 0 0 -1.75-1.75z"/></g></g><path d="m79.523 92.491a1.954 1.954 0 1 0 1.953 1.954 1.954 1.954 0 0 0 -1.953-1.954z" fill="#ffd92e"/><path d="m64 106.093a1.954 1.954 0 1 0 1.953 1.954 1.953 1.953 0 0 0 -1.953-1.954z" fill="#ffd92e"/><path d="m97.344 68.293a1.749 1.749 0 0 0 -1.75 1.75v18.079a1.75 1.75 0 1 0 3.5 0v-18.079a1.75 1.75 0 0 0 -1.75-1.75z" fill="#75e1f7"/><path d="m41.948 99.309a1.749 1.749 0 0 0 -1.75 1.75v9.659a1.75 1.75 0 0 0 3.5 0v-9.659a1.749 1.749 0 0 0 -1.75-1.75z" fill="#75e1f7"/><path d="m48.477 92.491a1.954 1.954 0 1 0 1.954 1.954 1.953 1.953 0 0 0 -1.954-1.954z" fill="#ffd92e"/><g fill="#ffd92e"><path d="m88.564 32.2a1.954 1.954 0 1 0 1.953 1.954 1.954 1.954 0 0 0 -1.953-1.954z"/><path d="m39.436 32.2a1.954 1.954 0 1 0 1.954 1.954 1.953 1.953 0 0 0 -1.954-1.954z"/></g><path d="m30.656 68.293a1.75 1.75 0 0 0 -1.75 1.75v18.079a1.75 1.75 0 0 0 3.5 0v-18.079a1.749 1.749 0 0 0 -1.75-1.75z" fill="#75e1f7"/></g></svg>