<svg height="512" viewBox="0 0 128 128" width="512" xmlns="http://www.w3.org/2000/svg"><g><circle cx="64" cy="45.678" fill="#def6ff" r="38.678"/><rect fill="#4d5e80" height="18.051" rx="2.5" width="82" x="23" y="36.652"/><g fill="#c5e2f9"><path d="m64 75.22a1.75 1.75 0 0 0 -1.75 1.75v44.03a1.75 1.75 0 0 0 3.5 0v-44.03a1.75 1.75 0 0 0 -1.75-1.75z"/><path d="m33.1 75.257a1.748 1.748 0 0 0 -2.148 1.228l-11.57 42.484a1.75 1.75 0 0 0 3.377.92l11.57-42.484a1.75 1.75 0 0 0 -1.229-2.148z"/><path d="m97.052 76.485a1.75 1.75 0 0 0 -3.377.92l11.57 42.484a1.75 1.75 0 0 0 3.377-.92z"/></g><path d="m64.056 65.557a5.778 5.778 0 0 0 -4.18 1.488l1.248 9.925h5.752l1.248-9.925a5.35 5.35 0 0 0 -4.068-1.488z" fill="#75e1f7"/><path d="m35.689 65.949a5.783 5.783 0 0 0 -4.425.337l-1.4 9.9 5.55 1.511 3.812-9.248a5.351 5.351 0 0 0 -3.537-2.5z" fill="#75e1f7"/><path d="m92.311 65.949a5.351 5.351 0 0 0 -3.534 2.5l3.812 9.251 5.55-1.511-1.4-9.9a5.785 5.785 0 0 0 -4.428-.34z" fill="#75e1f7"/></g></svg>