<svg height="512" viewBox="0 0 128 128" width="512" xmlns="http://www.w3.org/2000/svg"><g><path d="m75.02 13.593h10.267v3.5h-10.267z" fill="#c5e2f9" transform="matrix(.707 -.707 .707 .707 12.627 61.171)"/><g><path d="m61.81 27.362 6.816 6.594a16.94 16.94 0 0 0 19.87-3.01l-23.946-23.946a16.94 16.94 0 0 0 -2.74 20.362z" fill="#def6ff"/><path d="m64 26.725a4.1 4.1 0 0 0 -4.05 3.475l-1.85 12.073h11.8l-1.85-12.073a4.1 4.1 0 0 0 -4.05-3.475z" fill="#fb9700"/><path d="m80.57 8.5a4.545 4.545 0 1 0 6.43 0 4.545 4.545 0 0 0 -6.43 0z" fill="#ffd92e"/><path d="m64 41.937a51.232 51.232 0 0 0 -51.232 51.232v19.262h102.464v-19.262a51.232 51.232 0 0 0 -51.232-51.232z" fill="#75e1f7"/><path d="m7 112.431h114v8.569h-114z" fill="#fb9700"/><circle cx="64" cy="77.184" fill="#4d5e80" r="18.742" transform="matrix(.23 -.973 .973 .23 -25.823 121.739)"/><circle cx="64" cy="77.184" fill="#def6ff" r="11.306"/></g></g></svg>