<svg height="512" viewBox="0 0 128 128" width="512" xmlns="http://www.w3.org/2000/svg"><g><g fill="#4d5e80"><path d="m25.337 59.608h56.353v7.743h-56.353z"/><path d="m45.514 36.577h16v5.987h-16z"/><path d="m87.036 51.083h20.972v5.012h-20.972z"/></g><path d="m16.404 67.35-9.404 7.863v11.899h114v-11.899l-9.404-7.863z" fill="#def6ff"/><path d="m25.337 74.225h77.325v25.775h-77.325z" fill="#ffd92e"/><path d="m102.663 74.225a12.888 12.888 0 1 0 12.887 12.887 12.888 12.888 0 0 0 -12.887-12.887z" fill="#4d5e80"/><path d="m102.663 81.766a5.347 5.347 0 1 0 5.346 5.346 5.347 5.347 0 0 0 -5.346-5.346z" fill="#ffd92e"/><path d="m25.337 74.225a12.888 12.888 0 1 0 12.888 12.887 12.887 12.887 0 0 0 -12.888-12.887z" fill="#4d5e80"/><path d="m25.337 81.766a5.347 5.347 0 1 0 5.347 5.346 5.347 5.347 0 0 0 -5.347-5.346z" fill="#ffd92e"/><path d="m51.112 74.225a12.888 12.888 0 1 0 12.888 12.887 12.887 12.887 0 0 0 -12.888-12.887z" fill="#4d5e80"/><path d="m51.112 81.766a5.347 5.347 0 1 0 5.347 5.346 5.347 5.347 0 0 0 -5.347-5.346z" fill="#ffd92e"/><path d="m76.888 74.225a12.888 12.888 0 1 0 12.887 12.887 12.888 12.888 0 0 0 -12.887-12.887z" fill="#4d5e80"/><path d="m76.888 81.766a5.347 5.347 0 1 0 5.346 5.346 5.347 5.347 0 0 0 -5.346-5.346z" fill="#ffd92e"/><path d="m25.337 42.563-5.346 17.045h67.045v-12.038l-15.495-5.007z" fill="#def6ff"/><path d="m108.009 49.771h12.991v7.636h-12.991z" fill="#3c4566"/><path d="m38.85 32.288a4.289 4.289 0 0 0 4.289 4.289h25.038v-8.577h-25.038a4.288 4.288 0 0 0 -4.289 4.288z" fill="#def6ff"/></g></svg>