<svg height="512" viewBox="0 0 128 128" width="512" xmlns="http://www.w3.org/2000/svg"><g><circle cx="64" cy="64" fill="#fb9700" r="57"/><circle cx="64" cy="64" fill="#def6ff" r="26.521"/><g fill="#f47400"><circle cx="78.461" cy="105.259" r="4.285"/><circle cx="48.014" cy="25.599" r="4.978"/><path d="m13.635 41.86a8.069 8.069 0 0 0 -2.31.34 56.332 56.332 0 0 0 -3.61 12.81 7.911 7.911 0 1 0 5.92-13.15z"/><path d="m111.605 64.03a11.345 11.345 0 1 0 5.22 21.42 56.417 56.417 0 0 0 3.98-16.71 11.329 11.329 0 0 0 -9.2-4.71z"/></g><path d="m64 45.335s-11.255 5.555-11.255 18.665 11.255 18.665 11.255 18.665 11.255-5.555 11.255-18.665-11.255-18.665-11.255-18.665z" fill="#a9db1f"/><path d="m24.385 73.425a1.954 1.954 0 1 0 1.953 1.954 1.954 1.954 0 0 0 -1.953-1.954z" fill="#f47400"/><path d="m98.259 94.213a1.954 1.954 0 1 0 1.954 1.953 1.953 1.953 0 0 0 -1.954-1.953z" fill="#f47400"/><path d="m105.06 47.814a1.954 1.954 0 1 0 1.954 1.953 1.953 1.953 0 0 0 -1.954-1.953z" fill="#f47400"/><path d="m32.742 37.479a1.954 1.954 0 1 0 1.958 1.953 1.954 1.954 0 0 0 -1.958-1.953z" fill="#f47400"/><path d="m65.75 68.59v-7.97l7.37-5.87a20.021 20.021 0 0 0 -1.85-3l-5.52 4.4v-9.75a17.317 17.317 0 0 0 -1.75-1.06 17.317 17.317 0 0 0 -1.75 1.06v9.75l-5.52-4.4a20.021 20.021 0 0 0 -1.85 3l7.37 5.87v7.97l-9.32-7.42a19.773 19.773 0 0 0 -.19 2.83q0 .78.06 1.53l9.45 7.54v8.53a17.317 17.317 0 0 0 1.75 1.06 17.317 17.317 0 0 0 1.75-1.06v-8.53l9.45-7.54q.06-.75.06-1.53a19.773 19.773 0 0 0 -.19-2.83z" fill="#6bc800"/></g></svg>