<svg height="512" viewBox="0 0 128 128" width="512" xmlns="http://www.w3.org/2000/svg"><g><path d="m46.344 69.563-6.181 51.437h47.674l-6.181-51.437z" fill="#ffd92e"/><path d="m39.487 69.563h49.026l3.685-8.539h-56.396z" fill="#4d5e80"/><path d="m64 7a35.934 35.934 0 0 0 -35.934 35.934h71.868a35.934 35.934 0 0 0 -35.934-35.934z" fill="#def6ff"/><path d="m28.066 42.934-21.066 9.045h114l-21.066-9.045z" fill="#75e1f7"/><path d="m28.066 61.024h71.868l21.066-9.045h-114z" fill="#30cffc"/><g fill="#ffd92e"><g><path d="m109.506 86h-2.206a1.75 1.75 0 0 0 0 3.5h2.209a1.75 1.75 0 0 0 0-3.5z"/><path d="m100.209 86h-2.209a1.75 1.75 0 0 0 0 3.5h2.209a1.75 1.75 0 0 0 0-3.5z"/><path d="m103.753 89.547a1.749 1.749 0 0 0 -1.753 1.753v2.209a1.75 1.75 0 0 0 3.5 0v-2.209a1.749 1.749 0 0 0 -1.747-1.753z"/><path d="m103.753 80.25a1.749 1.749 0 0 0 -1.753 1.75v2.209a1.75 1.75 0 0 0 3.5 0v-2.209a1.749 1.749 0 0 0 -1.747-1.75z"/></g><g><path d="m119 14h-2.209a1.75 1.75 0 0 0 0 3.5h2.209a1.75 1.75 0 0 0 0-3.5z"/><path d="m109.7 14h-2.209a1.75 1.75 0 0 0 0 3.5h2.209a1.75 1.75 0 0 0 0-3.5z"/><path d="m113.247 17.547a1.749 1.749 0 0 0 -1.75 1.75v2.209a1.75 1.75 0 0 0 3.5 0v-2.206a1.749 1.749 0 0 0 -1.75-1.753z"/><path d="m113.247 8.25a1.749 1.749 0 0 0 -1.747 1.75v2.209a1.75 1.75 0 1 0 3.5 0v-2.209a1.749 1.749 0 0 0 -1.753-1.75z"/></g><g><path d="m20.505 14h-2.205a1.75 1.75 0 0 0 0 3.5h2.209a1.75 1.75 0 0 0 0-3.5z"/><path d="m11.209 14h-2.209a1.75 1.75 0 0 0 0 3.5h2.209a1.75 1.75 0 0 0 0-3.5z"/><path d="m14.753 17.547a1.75 1.75 0 0 0 -1.753 1.753v2.209a1.75 1.75 0 0 0 3.5 0v-2.209a1.75 1.75 0 0 0 -1.747-1.753z"/><path d="m14.753 8.25a1.75 1.75 0 0 0 -1.753 1.75v2.209a1.75 1.75 0 0 0 3.5 0v-2.209a1.75 1.75 0 0 0 -1.747-1.75z"/></g><g><path d="m20.7 86h-2.2a1.75 1.75 0 0 0 0 3.5h2.2a1.75 1.75 0 1 0 0-3.5z"/><path d="m30 86h-2.209a1.75 1.75 0 1 0 0 3.5h2.209a1.75 1.75 0 0 0 0-3.5z"/><path d="m24.247 89.547a1.75 1.75 0 0 0 -1.747 1.753v2.209a1.75 1.75 0 0 0 3.5 0v-2.209a1.75 1.75 0 0 0 -1.753-1.753z"/><path d="m24.247 80.25a1.75 1.75 0 0 0 -1.747 1.75v2.209a1.75 1.75 0 0 0 3.5 0v-2.209a1.75 1.75 0 0 0 -1.753-1.75z"/></g></g><path d="m64 82.816a1.751 1.751 0 0 0 -1.75 1.75v24.293a1.75 1.75 0 0 0 3.5 0v-24.293a1.751 1.751 0 0 0 -1.75-1.75z" fill="#fcbe00"/><path d="m64 115.48a1.746 1.746 0 0 0 -1.75 1.75v3.77h3.5v-3.77a1.746 1.746 0 0 0 -1.75-1.75z" fill="#fcbe00"/></g></svg>